<svg width="48" height="48" viewBox="0 0 48 48" fill="none" xmlns="http://www.w3.org/2000/svg">
<path d="M9.60033 9.6C9.60033 8.32696 10.106 7.10607 11.0062 6.20589C11.9064 5.30572 13.1273 4.8 14.4003 4.8H25.4067C26.3612 4.80084 27.2762 5.18068 27.9507 5.856L37.3467 15.2496C38.0212 15.9245 38.4001 16.8395 38.4003 17.7936V38.4C38.4003 39.673 37.8946 40.8939 36.9944 41.7941C36.0943 42.6943 34.8734 43.2 33.6003 43.2H28.5963C28.4172 42.6941 28.1269 42.2348 27.7467 41.856L26.6907 40.8H33.6003C34.2369 40.8 34.8473 40.5471 35.2974 40.0971C35.7475 39.647 36.0003 39.0365 36.0003 38.4V19.2H27.6003C26.6456 19.2 25.7299 18.8207 25.0547 18.1456C24.3796 17.4705 24.0003 16.5548 24.0003 15.6V7.2H14.4003C13.7638 7.2 13.1534 7.45286 12.7033 7.90295C12.2532 8.35303 12.0003 8.96348 12.0003 9.6V21.6648C11.1818 21.7562 10.3765 21.9414 9.60033 22.2168V9.6ZM27.6003 16.8H35.5035L26.4003 7.6968V15.6C26.4003 15.9183 26.5268 16.2235 26.7518 16.4485C26.9768 16.6736 27.2821 16.8 27.6003 16.8ZM13.2003 40.8C15.0867 40.8 16.8291 40.176 18.2307 39.1272L24.3507 45.2472C24.4621 45.3588 24.5944 45.4473 24.7401 45.5078C24.8857 45.5682 25.0418 45.5994 25.1995 45.5995C25.3572 45.5996 25.5133 45.5686 25.659 45.5084C25.8047 45.4482 25.9372 45.3598 26.0487 45.2484C26.1603 45.137 26.2488 45.0047 26.3093 44.8591C26.3697 44.7134 26.4009 44.5573 26.401 44.3997C26.4011 44.242 26.3702 44.0858 26.3099 43.9401C26.2497 43.7944 26.1613 43.662 26.0499 43.5504L19.9299 37.4304C21.0628 35.9155 21.6511 34.0625 21.5996 32.1716C21.5482 30.2806 20.86 28.4624 19.6465 27.0113C18.433 25.5602 16.7652 24.5612 14.9131 24.176C13.0611 23.7908 11.1333 24.042 9.44186 24.889C7.7504 25.7359 6.39433 27.129 5.59322 28.8426C4.7921 30.5562 4.59285 32.4901 5.02772 34.3311C5.4626 36.1721 6.50613 37.8124 7.98936 38.9864C9.4726 40.1604 11.3087 40.7995 13.2003 40.8ZM13.2003 38.4C11.609 38.4 10.0829 37.7679 8.95769 36.6426C7.83247 35.5174 7.20033 33.9913 7.20033 32.4C7.20033 30.8087 7.83247 29.2826 8.95769 28.1574C10.0829 27.0321 11.609 26.4 13.2003 26.4C14.7916 26.4 16.3178 27.0321 17.443 28.1574C18.5682 29.2826 19.2003 30.8087 19.2003 32.4C19.2003 33.9913 18.5682 35.5174 17.443 36.6426C16.3178 37.7679 14.7916 38.4 13.2003 38.4Z" fill="white"/>
</svg>
