<svg width="24" height="25" viewBox="0 0 24 25" fill="none" xmlns="http://www.w3.org/2000/svg">
<g id="Edit / Hide">
<path id="Vector" d="M3.9994 4.5L19.9994 20.5M16.4994 17.2559C15.1468 17.9845 13.618 18.4999 11.9994 18.4999C8.46875 18.4999 5.36575 16.0478 3.58632 14.2788C3.11661 13.8119 2.8818 13.5784 2.73231 13.1201C2.6257 12.7933 2.62567 12.2066 2.73231 11.8797C2.88185 11.4215 3.11715 11.1875 3.58778 10.7197C4.48467 9.82821 5.71752 8.76359 7.17171 7.92676M19.4994 15.1335C19.8325 14.8405 20.1375 14.5523 20.4112 14.2803L20.4141 14.2772C20.8827 13.8114 21.1177 13.5779 21.2669 13.1206C21.3736 12.7938 21.3733 12.2068 21.2667 11.88C21.1173 11.4219 20.8822 11.1877 20.4128 10.7211C18.6334 8.95208 15.5301 6.5 11.9994 6.5C11.6619 6.5 11.3283 6.52241 10.9994 6.56448M13.3223 14C12.9697 14.3112 12.5066 14.5 11.9994 14.5C10.8948 14.5 9.9994 13.6046 9.9994 12.5C9.9994 11.9605 10.213 11.4711 10.5603 11.1113" stroke="black" stroke-width="2" stroke-linecap="round" stroke-linejoin="round"/>
</g>
</svg>
