<svg width="48" height="48" viewBox="0 0 48 48" fill="none" xmlns="http://www.w3.org/2000/svg">
<path d="M6 14H9.56C13.864 14 16.016 14 17.76 14.912C18.5046 15.3026 19.1829 15.8081 19.77 16.41C21.146 17.816 21.764 19.878 23 24C24.236 28.122 24.856 30.184 26.23 31.59C26.818 32.192 27.496 32.698 28.242 33.088C29.984 34 32.136 34 36.442 34H42M42 34L36 28M42 34L36 40" stroke="white" stroke-width="4"/>
<path fill-rule="evenodd" clip-rule="evenodd" d="M43.414 12.586L37.414 6.586L34.586 9.414L37.172 12H36.35C34.274 12 32.588 12 31.204 12.12C29.77 12.248 28.506 12.516 27.314 13.14C26.4226 13.6069 25.6067 14.2056 24.894 14.916C25.376 15.702 25.754 16.516 26.082 17.336C26.308 17.902 26.528 18.522 26.746 19.182C26.9723 18.6758 27.2811 18.2108 27.66 17.806C28.1014 17.3556 28.6109 16.9777 29.17 16.686C29.72 16.396 30.404 16.208 31.556 16.106C32.742 16.002 34.254 16 36.44 16H37.172L34.586 18.586L37.414 21.414L43.414 15.414L44.828 14L43.414 12.586ZM21.106 33.086C20.6419 32.3146 20.2444 31.505 19.918 30.666C19.6783 30.0568 19.4568 29.4405 19.254 28.818C19.0283 29.3245 18.7193 29.7896 18.34 30.194C17.8986 30.6444 17.3891 31.0223 16.83 31.314C16.28 31.604 15.596 31.794 14.444 31.894C13.258 31.998 11.746 32 9.56 32H6V36H9.65C11.726 36 13.412 36 14.794 35.88C16.23 35.752 17.494 35.484 18.686 34.86C19.5774 34.3931 20.3933 33.7964 21.106 33.086Z" fill="white"/>
</svg>
