<svg width="36" height="36" viewBox="0 0 36 36" fill="none" xmlns="http://www.w3.org/2000/svg">
<path d="M23.1638 24.75L16.875 18.4613V7.875H19.125V17.5275L24.75 23.1637L23.1638 24.75Z" fill="white"/>
<path d="M18 2.25C15.9018 2.2503 13.825 2.67163 11.8926 3.48903C9.96023 4.30644 8.2115 5.5033 6.75 7.00875V2.25H4.5V11.25H13.5V9H7.965C10.0755 6.65471 12.9409 5.12272 16.0633 4.67011C19.1858 4.21749 22.3682 4.87284 25.0578 6.52234C27.7474 8.17184 29.7743 10.7113 30.7864 13.6996C31.7986 16.688 31.7321 19.9365 30.5985 22.8809C29.4649 25.8253 27.3358 28.2797 24.581 29.8178C21.8261 31.3558 18.6196 31.8804 15.5182 31.3004C12.4169 30.7204 9.61666 29.0724 7.60387 26.6427C5.59108 24.2131 4.49288 21.1551 4.5 18H2.25C2.25 21.1151 3.17372 24.1602 4.90435 26.7502C6.63499 29.3403 9.0948 31.359 11.9727 32.5511C14.8507 33.7432 18.0175 34.0551 21.0727 33.4474C24.1279 32.8397 26.9343 31.3396 29.1369 29.1369C31.3396 26.9343 32.8397 24.1279 33.4474 21.0727C34.0551 18.0175 33.7432 14.8507 32.5511 11.9727C31.359 9.0948 29.3403 6.63499 26.7502 4.90435C24.1602 3.17372 21.1151 2.25 18 2.25Z" fill="white"/>
</svg>
