<svg width="24" height="25" viewBox="0 0 24 25" fill="none" xmlns="http://www.w3.org/2000/svg">
<g id="Edit / Show">
<g id="Vector">
<path d="M3.58631 14.2788C5.36575 16.0478 8.46904 18.4999 11.9997 18.4999C15.5303 18.4999 18.6331 16.0478 20.4125 14.2788C20.8818 13.8123 21.1172 13.5782 21.2667 13.1201C21.3733 12.7933 21.3733 12.2067 21.2667 11.8799C21.1172 11.4218 20.8818 11.1877 20.4125 10.7211C18.633 8.95208 15.5303 6.5 11.9997 6.5C8.46904 6.5 5.36575 8.95208 3.58631 10.7211C3.11665 11.188 2.8818 11.4216 2.73231 11.8799C2.62569 12.2067 2.62569 12.7933 2.73231 13.1201C2.8818 13.5784 3.11665 13.8119 3.58631 14.2788Z" stroke="black" strokeWidth="2" strokeLinecap="round" strokeLinejoin="round"/>
<path d="M9.99951 12.5C9.99951 13.6046 10.8949 14.5 11.9995 14.5C13.1041 14.5 13.9995 13.6046 13.9995 12.5C13.9995 11.3954 13.1041 10.5 11.9995 10.5C10.8949 10.5 9.99951 11.3954 9.99951 12.5Z" stroke="black" strokeWidth="2" strokeLinecap="round" strokeLinejoin="round"/>
</g>
</g>
</svg>
