<svg width="36" height="36" viewBox="0 0 36 36" fill="none" xmlns="http://www.w3.org/2000/svg">
<path d="M6.75 33.75H29.25V28.125C29.2476 26.0372 28.4172 24.0355 26.9408 22.5592C25.4645 21.0828 23.4628 20.2524 21.375 20.25H14.625C12.5372 20.2524 10.5355 21.0828 9.05917 22.5592C7.58283 24.0355 6.75238 26.0372 6.75 28.125V33.75ZM10.125 10.125C10.125 11.6825 10.5869 13.2051 11.4522 14.5001C12.3175 15.7952 13.5474 16.8045 14.9864 17.4006C16.4253 17.9966 18.0087 18.1525 19.5363 17.8487C21.0639 17.5448 22.4671 16.7948 23.5685 15.6935C24.6698 14.5921 25.4198 13.1889 25.7237 11.6613C26.0275 10.1337 25.8716 8.55034 25.2756 7.11137C24.6795 5.6724 23.6702 4.44249 22.3751 3.57718C21.0801 2.71186 19.5575 2.25 18 2.25C15.9114 2.25 13.9084 3.07969 12.4315 4.55653C10.9547 6.03338 10.125 8.03642 10.125 10.125Z" fill="white"/>
</svg>
